# xmcd
#
# Track frame offsets: 
#        150
#        19281
#        36384
#        55392
#        73775
#        90526
#        107476
#        128997
#        143812
#        163017
#        180046
#
# Disc length: 2638 seconds
#
# Revision: 0
# Processed by: cddbd v1.5.2PL0 Copyright (c) Steve Scherf et al.
# Submitted via: ExactAudioCopy v1.3
#
DISCID=930a4c0b
DTITLE=Bobby Rush - Sitting On Top Of The Blues
DYEAR=2019
DGENRE=Blues
TTITLE0=Hey Hey Bobby Rush
TTITLE1=Good Stuff
TTITLE2=Get Out Of Here (Dog Named Bo)
TTITLE3=You Got the Goods On You
TTITLE4=Sweet Lizzy
TTITLE5=Bobby Rush Shuffle
TTITLE6=Recipe For Love
TTITLE7=Pooky Poo
TTITLE8=Slow Motion
TTITLE9=Shake Til' You Get Enough
TTITLE10=Bowlegged Woman
EXTD=
EXTT0=
EXTT1=
EXTT2=
EXTT3=
EXTT4=
EXTT5=
EXTT6=
EXTT7=
EXTT8=
EXTT9=
EXTT10=
PLAYORDER=
